<svg id="レイヤー_1" data-name="レイヤー 1" xmlns="http://www.w3.org/2000/svg" viewBox="0 0 50.75 50.75"><defs><style>.cls-1{fill:#fff;}</style></defs><title>ics_logo_icon_white</title><path class="cls-1" d="M7.17,43.31c-0.94-2.49-1.38-5.63-3-7.72C2.68,33.71,1.37,35.89,0,37v13.8H16.1c-4-1-7.44-3.46-8.93-7.44"/><path class="cls-1" d="M27.9,40.14a19.13,19.13,0,0,1-5-2.12,15.62,15.62,0,0,1-4.1-3.44,8.86,8.86,0,0,0,9.13,5.57"/><path class="cls-1" d="M25.44,0c0.23,1.38.6,2.81-.15,3.78-1.08,1.4-2.92,3-3.26,3.7-0.95,1.78-.63,1.77-2.21,3.52-2.76,3-8.13,1.36-9-2.44C10,5,11.65,2.32,14.79,0l0.07,0H0V27.46c2.77-3.6,2.21-1.34,5.68-6.28,2.1-3.36,7.47-3.44,9.41-.13s2.19,8.08,3.16,11.89a15.52,15.52,0,0,0,4.91,4.55,14.76,14.76,0,0,0,6.69,2.31,11.89,11.89,0,0,0,4.54-2.33c1.7-1.39,3.64-2.39,3.76-.85,0,0.68-1.5,1.18-2.28,2.64S39.93,38,34.65,45a16.46,16.46,0,0,1-9.38,5.79H50.75V0H25.44Z"/></svg>